<svg id="Capa_1" data-name="Capa 1" xmlns="http://www.w3.org/2000/svg" viewBox="0 0 99.5 13.38"><defs><style>.cls-1{fill:#fff;}</style></defs><path class="cls-1" d="M60.9,5.84c.34-.57.66-1.09,1-1.62.48-.8,1-1.61,1.44-2.42a.52.52,0,0,1,.49-.29c.73,0,1.45,0,2.18,0,.2,0,.25.05.25.25V11.91c0,.19,0,.24-.23.24-.75,0-1.5,0-2.24,0-.23,0-.29-.06-.29-.29,0-1.57,0-3.15,0-4.73V6.78c-.15.06-.18.19-.23.28C62.6,8.13,62,9.2,61.31,10.27c-.25.41-.56.42-.8,0L58.57,7.06l-.17-.28a.5.5,0,0,0,0,.33c0,1.58,0,3.16,0,4.74,0,.25-.07.3-.31.3-.74,0-1.47,0-2.21,0-.22,0-.27-.06-.26-.27q0-5.06,0-10.09c0-.24.08-.29.3-.28.7,0,1.41,0,2.11,0a.53.53,0,0,1,.52.29C59.28,3.13,60.07,4.46,60.9,5.84Z"/><path class="cls-1" d="M38.4,12.14H36c-.2,0-.26-.05-.26-.26q0-5.06,0-10.11c0-.15,0-.27.21-.27,1.66,0,3.33-.07,5,.05a5.24,5.24,0,0,1,4.73,4.28A5.31,5.31,0,0,1,41.51,12a12.4,12.4,0,0,1-2.36.1Zm.1-5.33c0,.83,0,1.65,0,2.47,0,.23.07.28.29.27.48,0,.95,0,1.43,0a2.72,2.72,0,0,0,.35-5.4c-.6-.09-1.21,0-1.81-.05-.21,0-.26.06-.26.25C38.51,5.17,38.5,6,38.5,6.81Z"/><path class="cls-1" d="M67.34,6.82c0-1.67,0-3.33,0-5,0-.23,0-.31.3-.31q3.93,0,7.85,0c.24,0,.29.07.29.29,0,.64,0,1.28,0,1.91,0,.27-.06.35-.33.35-1.67,0-3.33,0-5,0-.29,0-.38.08-.36.36a4.31,4.31,0,0,1,0,.88c0,.24.06.31.31.3,1.57,0,3.14,0,4.7,0,.3,0,.36.08.35.36,0,.62,0,1.25,0,1.88,0,.24,0,.31-.3.31-1.58,0-3.16,0-4.74,0-.26,0-.33.07-.32.33a4.22,4.22,0,0,1,0,.87c0,.25.06.33.32.32h5c.27,0,.35.07.34.34,0,.65,0,1.3,0,1.94,0,.2,0,.26-.25.26H67.6c-.22,0-.27-.07-.27-.27C67.34,10.19,67.34,8.5,67.34,6.82Z"/><path class="cls-1" d="M86.23,12.14h-3c-.16,0-.19-.13-.24-.23-.52-.93-1-1.86-1.56-2.8A.43.43,0,0,0,81,8.85a11.42,11.42,0,0,1-1.17,0c-.27,0-.32.09-.32.33,0,.89,0,1.77,0,2.66,0,.24,0,.31-.3.31q-1.18,0-2.37,0c-.21,0-.25-.06-.25-.26q0-5.06,0-10.11c0-.23.07-.27.27-.27,1.64,0,3.27,0,4.9,0a3.7,3.7,0,0,1,3.35,2.93A3.14,3.14,0,0,1,84,7.63c-.17.14-.12.22,0,.36Q85,9.91,86.1,11.83A.59.59,0,0,1,86.23,12.14ZM79.41,5V6c0,.13,0,.22.18.21.53,0,1.06,0,1.59,0a1.13,1.13,0,0,0,0-2.26c-.53,0-1.06,0-1.59,0-.14,0-.19,0-.18.19C79.42,4.39,79.41,4.7,79.41,5Z"/><path class="cls-1" d="M25.7,5.19c0-1.09,0-2.18,0-3.27,0-.31,0-.43.4-.42.72,0,1.45,0,2.17,0,.28,0,.38.05.38.36,0,2,0,4.08,0,6.13a1.42,1.42,0,0,0,1.06,1.41,1.54,1.54,0,0,0,1.7-.65,1.56,1.56,0,0,0,.19-.87c0-2,0-4,0-6,0-.3.08-.36.36-.35.78,0,1.56,0,2.34,0,.19,0,.26.05.26.25,0,2.17,0,4.35,0,6.52a4.28,4.28,0,0,1-3.67,4.12,4.45,4.45,0,0,1-5.11-3.58,3.76,3.76,0,0,1,0-.58Z"/><path class="cls-1" d="M20.79,1.24a7.37,7.37,0,0,1,3.76.91c.19.1.27.17.13.4q-.54.87-1,1.77c-.12.23-.23.23-.44.13a6.16,6.16,0,0,0-3.08-.75,2.13,2.13,0,0,0-.57.11.68.68,0,0,0-.47.64.61.61,0,0,0,.43.62,9.36,9.36,0,0,0,1.65.45,11.67,11.67,0,0,1,2.31.72,2.76,2.76,0,0,1,1.7,2.61,3,3,0,0,1-1.62,3,6,6,0,0,1-2.65.64,9.71,9.71,0,0,1-4.62-.94c-.21-.1-.22-.18-.11-.36.37-.61.73-1.22,1.08-1.84.11-.19.2-.2.38-.11a6.54,6.54,0,0,0,2.8.82,3.76,3.76,0,0,0,1.25-.1.72.72,0,0,0,.56-.64.67.67,0,0,0-.41-.67,3.35,3.35,0,0,0-1.06-.37,18.55,18.55,0,0,1-2.54-.65,2.74,2.74,0,0,1-2-2.22,3.2,3.2,0,0,1,1.32-3.32,5,5,0,0,1,2.69-.82C20.42,1.23,20.61,1.24,20.79,1.24Z"/><path class="cls-1" d="M55.1,12.14H52.33c-.16,0-.2-.07-.25-.19-.13-.35-.27-.7-.39-1.06a.26.26,0,0,0-.3-.21H48.6c-.18,0-.26.05-.32.23-.12.36-.26.71-.39,1.06,0,.11-.08.18-.22.17H44.85c.38-1.05.75-2.07,1.13-3.09l2.65-7.24c.08-.22.17-.31.41-.3.65,0,1.3,0,2,0,.15,0,.25,0,.31.19l3.81,10.38A.15.15,0,0,0,55.1,12.14ZM50,5.52H50c-.25.85-.5,1.7-.76,2.54-.05.18.07.15.16.15.4,0,.8,0,1.19,0s.26-.09.2-.28Z"/><path class="cls-1" d="M89.34,11.94c.36-1,.73-2,1.12-3,.26-.64.46-1.31.7-2C91.77,5.22,92.41,3.51,93,1.8c.08-.21.17-.3.41-.29.65,0,1.3,0,2,0,.15,0,.25,0,.31.19q1.9,5.19,3.8,10.37s0,0,0,.07H96.66c-.14,0-.15-.1-.18-.19-.13-.35-.27-.7-.39-1.06a.25.25,0,0,0-.3-.21H93a.25.25,0,0,0-.28.19c-.13.37-.28.73-.4,1.1a.21.21,0,0,1-.23.17l-2.79,0ZM94.42,5.5h-.06L93.55,8.2H95c.13,0,.17,0,.13-.18Z"/><path class="cls-1" d="M13.1,5.25H.49c-.3,0-.33-.08-.26-.35A6.67,6.67,0,0,1,7.1,0,6.7,6.7,0,0,1,13,4.94C13.06,5,13.07,5.13,13.1,5.25Z"/><path class="cls-1" d="M8.56,6.16,3.31,7.33,5.24,8.41c1.1.61,2.2,1.22,3.29,1.84a.36.36,0,0,0,.55-.1Q11,7.93,13,5.72a1.72,1.72,0,0,0,.12-.17c0,.18.07.28.08.39A6.7,6.7,0,0,1,7.7,13.29,6.65,6.65,0,0,1,.05,7.53c0-.41,0-.82,0-1.23s.05-.37.34-.23c.51.24,1,.4,1.54.67a2.59,2.59,0,0,0,1.87.18c1.6-.3,3.21-.56,4.82-.83ZM5.24,8.79,2.79,7.43c0,.69,0,1.31,0,1.93,0,.15,0,.22.21.17Z"/><path class="cls-1" d="M89.34,11.94l-.07.18-2.69,0c-.22,0-.16-.15-.16-.26,0-1,0-2.06,0-3.08,0-2.33,0-4.65,0-7,0-.27.07-.34.34-.33.71,0,1.43,0,2.14,0,.33,0,.38.11.38.4q0,4.84,0,9.69C89.26,11.71,89.19,11.85,89.34,11.94Z"/><path class="cls-1" d="M97.7,2.33a.85.85,0,0,1,.88-.83.87.87,0,1,1-.88.83Zm.85.67a.66.66,0,0,0,.65-.64.62.62,0,0,0-.62-.62.64.64,0,0,0-.67.63A.63.63,0,0,0,98.55,3Z"/><path class="cls-1" d="M8.56,6.16V6.09a6.23,6.23,0,0,1,1.29-.23A8.43,8.43,0,0,1,8.56,6.16Z"/><path class="cls-1" d="M98.55,3a.63.63,0,0,1-.64-.63.64.64,0,0,1,.67-.63.62.62,0,0,1,.62.62A.66.66,0,0,1,98.55,3Zm-.33-.64c0,.12,0,.24,0,.35s0,.09.11.08.07,0,.08-.07,0-.2.07-.22.13.12.17.2.08.1.15.09.11,0,.07-.07,0-.34,0-.51a.23.23,0,0,0-.18-.27C98.34,1.83,98.22,1.92,98.22,2.36Z"/><path class="cls-1" d="M98.22,2.36c0-.44.12-.53.49-.42a.23.23,0,0,1,.18.27c0,.17-.14.33,0,.51s0,.07-.07.07-.11,0-.15-.09,0-.22-.17-.2,0,.14-.07.22,0,.07-.08.07-.11,0-.11-.08S98.22,2.48,98.22,2.36Z"/></svg>