<?xml version="1.0" encoding="UTF-8"?>
<svg xmlns="http://www.w3.org/2000/svg" id="Capa_1" data-name="Capa 1" viewBox="0 0 132.68 21.55">
  <defs>
    <style>.cls-1{fill:#fff;}</style>
  </defs>
  <path class="cls-1" d="M24.94,15.4c-.13-1-.79-1.4-2.08-1.4-1.53,0-2.06.59-2.06,1.47s.41,1.12,1.51,1.23l1.27.14c1.57.17,2.43.91,2.43,2.24,0,1.63-1.07,2.47-3.23,2.47s-3.06-1.13-3.2-2.5h.89c.17,1.12.79,1.69,2.31,1.69,1.74,0,2.35-.59,2.35-1.6,0-.79-.47-1.3-1.68-1.42l-1.29-.14c-1.55-.16-2.24-.89-2.24-2.08s.77-2.31,2.94-2.31c1.81,0,2.8.75,3,2.21Z"></path>
  <path class="cls-1" d="M27.12,19.32V15.89h.8v3.34a1.42,1.42,0,0,0,1.6,1.58,1.4,1.4,0,0,0,1.58-1.58V15.89h.81v5.52h-.79v-.68a1.87,1.87,0,0,1-1.71.82A2,2,0,0,1,27.12,19.32Z"></path>
  <path class="cls-1" d="M38.57,13.33v8.08h-.78v-.77a2.16,2.16,0,0,1-2,.91c-1.82,0-2.72-1.08-2.72-2.89s.9-2.91,2.72-2.91a2.18,2.18,0,0,1,1.95.88v-3.3Zm-.78,5.33c0-1.37-.63-2.17-1.93-2.17s-1.94.8-1.94,2.17.63,2.15,1.94,2.15,1.93-.78,1.93-2.15Z"></path>
  <path class="cls-1" d="M43.62,20.72a2.51,2.51,0,0,1-2,.83c-1.4,0-1.95-.77-1.95-1.67s.57-1.54,1.8-1.68L43,18c.5-.06.66-.24.66-.67s-.38-.88-1.43-.88-1.33.34-1.4.88H40c.05-.9.67-1.62,2.17-1.62s2.23.68,2.23,1.71v3.95h-.79Zm-.72-2-1.22.13c-.81.08-1.2.4-1.2,1s.36,1,1.3,1,1.83-.49,1.83-1.5v-.73A3,3,0,0,1,42.9,18.73Z"></path>
  <path class="cls-1" d="M45.85,15.89h.78v.67a1.85,1.85,0,0,1,1.67-.81,2,2,0,0,1,2,1,2.12,2.12,0,0,1,1.92-1A2,2,0,0,1,54.47,18v3.43h-.81V18.08a1.38,1.38,0,0,0-1.55-1.59c-1,0-1.55.43-1.55,1.59v3.33h-.81V18.08c0-1.16-.6-1.59-1.54-1.59s-1.55.43-1.55,1.59v3.33h-.81Z"></path>
  <path class="cls-1" d="M60.88,18.88H56.43c.06,1.23.65,1.93,1.87,1.93,1.06,0,1.46-.4,1.63-1h.84a2.2,2.2,0,0,1-2.47,1.75c-1.78,0-2.71-1.11-2.71-2.9s.91-2.89,2.69-2.89,2.61,1,2.61,2.78C60.89,18.66,60.89,18.76,60.88,18.88ZM60,18.19c-.09-1.21-.65-1.7-1.76-1.7a1.69,1.69,0,0,0-1.84,1.7Z"></path>
  <path class="cls-1" d="M64.45,16.54A1.48,1.48,0,0,0,62.86,18v3.43h-.81V15.89h.79v.76a1.92,1.92,0,0,1,1.78-.9h.23v.8Z"></path>
  <path class="cls-1" d="M65.68,13.62h.95v1h-.95Zm.07,2.27h.81v5.52h-.81Z"></path>
  <path class="cls-1" d="M71.61,20.72a2.51,2.51,0,0,1-2,.83c-1.4,0-2-.77-2-1.67s.56-1.54,1.8-1.68L70.94,18c.49-.06.65-.24.65-.67s-.38-.88-1.43-.88-1.33.34-1.4.88H68c.06-.9.67-1.62,2.17-1.62s2.23.68,2.23,1.71v3.95h-.78Zm-.72-2-1.22.13c-.81.08-1.21.4-1.21,1s.36,1,1.31,1,1.82-.49,1.82-1.5v-.73A2.87,2.87,0,0,1,70.89,18.73Z"></path>
  <path class="cls-1" d="M68.06,4.11c-1.72,0-2.56.66-2.62,1.89h1.69c0-.32.21-.56.92-.56s.94.2.94.52-.17.38-.6.42l-1.11.12c-1.5.16-2.18.78-2.18,1.91a1.79,1.79,0,0,0,2,1.86,2.27,2.27,0,0,0,2-.9v.73h1.6V6.28C70.69,4.67,69.75,4.11,68.06,4.11Zm1,3.73c0,.63-.61,1.1-1.53,1.1-.45,0-.71-.2-.71-.6s.18-.55.77-.63l1-.14A3.89,3.89,0,0,0,69,7.48Z"></path>
  <path class="cls-1" d="M62.45,6.45l-.61-.08c-.5-.07-.64-.21-.64-.46s.22-.45.8-.45.77.21.83.54h1.69c-.08-1.26-.93-1.89-2.52-1.89S59.46,4.93,59.46,6s.74,1.65,2,1.82l.61.08c.6.08.83.22.83.52s-.28.48-1,.48-1-.2-1-.63H59.23c0,1.17.74,2,2.73,2,1.84,0,2.7-.72,2.7-1.95S63.93,6.65,62.45,6.45Z"></path>
  <path class="cls-1" d="M56.49,4.11A1.74,1.74,0,0,0,54.81,5V4.28H53.17V10.1h1.75V6.77c0-.77.39-1.11,1-1.11S57,6,57,6.77V10.1h1.74V6.7C58.77,4.78,58,4.11,56.49,4.11Z"></path>
  <path class="cls-1" d="M49.82,4.11c-1.72,0-2.55.66-2.62,1.89h1.7c0-.32.21-.56.92-.56s.94.2.94.52-.17.38-.6.42l-1.11.12c-1.5.16-2.18.78-2.18,1.91a1.79,1.79,0,0,0,2,1.86,2.27,2.27,0,0,0,2-.9v.73h1.6V6.28C52.46,4.67,51.52,4.11,49.82,4.11Zm1,3.73c0,.63-.6,1.1-1.52,1.1-.45,0-.72-.2-.72-.6s.19-.55.78-.63l1-.14a3.4,3.4,0,0,0,.46-.09Z"></path>
  <path class="cls-1" d="M44.1,4.11a1.77,1.77,0,0,0-1.59.74V2H40.75V10.1H42.5V6.77c0-.77.39-1.11,1-1.11s1.06.34,1.06,1.11V10.1h1.74V6.7C46.35,4.78,45.58,4.11,44.1,4.11Z"></path>
  <path class="cls-1" d="M38.92,2.59H37.17V4.28H36.3V5.7h.87V8.16c0,1.41.85,2,2.24,2a3.84,3.84,0,0,0,.83-.09V8.71a4.5,4.5,0,0,1-.49,0c-.51,0-.83-.16-.83-.79V5.7h1.32V4.28H38.92Z"></path>
  <path class="cls-1" d="M32.82,4.06v.22H32V5.7h.87v4.4h1.74V5.7h1.29V4.28H34.56V4.05c0-.51.29-.69.84-.69l.45,0V2a3.09,3.09,0,0,0-.74-.07A2,2,0,0,0,32.82,4.06Z"></path>
  <path class="cls-1" d="M29.74,7.61c0,.77-.39,1.12-1,1.12s-1-.35-1-1.12V4.28H25.93V7.69c0,1.91.78,2.58,2.26,2.58a1.71,1.71,0,0,0,1.65-.84v.67h1.64V4.28H29.74Z"></path>
  <polygon class="cls-1" points="22.07 2.02 20.2 2.02 20.2 10.1 25.54 10.1 25.54 8.47 22.07 8.47 22.07 2.02"></polygon>
  <path class="cls-1" d="M78,1.85c2.51,0,3.65,1.2,3.92,2.92H79.94c-.23-.82-.79-1.26-2-1.26-1.47,0-2.11.94-2.11,2.55S76.49,8.61,78,8.61c1.19,0,1.75-.44,2-1.26h1.94c-.27,1.72-1.41,2.92-3.92,2.92-2.92,0-4-1.79-4-4.21S75,1.85,78,1.85Z"></path>
  <path class="cls-1" d="M84.18,3.51H82.44V2h1.75Zm0,6.59H82.44V4.28h1.75Z"></path>
  <path class="cls-1" d="M87.32,5.7V8c0,.63.33.79.83.79a4.52,4.52,0,0,0,.5,0v1.4a3.84,3.84,0,0,1-.83.09c-1.4,0-2.24-.63-2.24-2V5.7H84.7V4.28h.88V2.59h1.74V4.28h1.33V5.7Z"></path>
  <path class="cls-1" d="M95.31,4.28,92,12.13H90.13l1-2.29L88.84,4.28h1.92L92,7.78l1.35-3.5Z"></path>
  <path class="cls-1" d="M101.76,1.85c2.51,0,3.65,1.2,3.91,2.92h-1.94c-.23-.82-.78-1.26-2-1.26-1.48,0-2.11.94-2.11,2.55s.63,2.55,2.11,2.55c1.19,0,1.74-.44,2-1.26h1.94c-.26,1.72-1.4,2.92-3.91,2.92-2.92,0-4.05-1.79-4.05-4.21S98.84,1.85,101.76,1.85Z"></path>
  <path class="cls-1" d="M112,7.66H107.8c.08.88.45,1.21,1.31,1.21.66,0,.92-.18,1-.56h1.72c-.11,1.13-1,2-2.75,2-2.19,0-3-1.23-3-3.08,0-1.56.71-3.08,3-3.08s3,1.22,3,3.07A2.57,2.57,0,0,1,112,7.66Zm-1.75-1.2c-.07-.6-.33-1-1.18-1a1,1,0,0,0-1.2,1Z"></path>
  <path class="cls-1" d="M115.81,4.11c1.51,0,2.28.67,2.28,2.58V10.1h-1.74V6.77c0-.77-.34-1.11-1.06-1.11s-1.05.34-1.05,1.11V10.1h-1.75V4.28h1.64V5A1.75,1.75,0,0,1,115.81,4.11Z"></path>
  <path class="cls-1" d="M121.1,5.7V8c0,.63.33.79.83.79a4.52,4.52,0,0,0,.5,0v1.4a3.84,3.84,0,0,1-.83.09c-1.4,0-2.24-.63-2.24-2V5.7h-.88V4.28h.88V2.59h1.74V4.28h1.33V5.7Z"></path>
  <path class="cls-1" d="M128.57,7.66h-4.16c.08.88.45,1.21,1.32,1.21.66,0,.92-.18,1-.56h1.72c-.11,1.13-1,2-2.75,2-2.19,0-3-1.23-3-3.08,0-1.56.71-3.08,3-3.08s3,1.22,3,3.07A3.85,3.85,0,0,1,128.57,7.66Zm-1.75-1.2c-.07-.6-.33-1-1.18-1a1,1,0,0,0-1.2,1Z"></path>
  <path class="cls-1" d="M131.94,5.76a1,1,0,0,0-1.09,1.06V10.1h-1.74V4.28h1.64V5h0a1.65,1.65,0,0,1,1.59-.84l.33,0V5.8A6.12,6.12,0,0,0,131.94,5.76Z"></path>
  <g id="Kranich_Standard_blue_RGB" data-name="Kranich Standard blue RGB">
    <path class="cls-1" d="M6.06,0a6.06,6.06,0,1,0,6.06,6.06h0A6.06,6.06,0,0,0,6.07,0h0m0,11.75a5.7,5.7,0,1,1,5.69-5.69,5.7,5.7,0,0,1-5.69,5.69"></path>
    <path class="cls-1" d="M8.3,4.86a1.31,1.31,0,0,1-.12.19,14.26,14.26,0,0,1,2.53.23l-.24.24a11.65,11.65,0,0,0-2.28-.2H8l-.16.21h.41a12.41,12.41,0,0,1,2,.16L10,5.92a12.76,12.76,0,0,0-1.75-.13l-.65,0L7.43,6c.32,0,.63,0,1,0a10.52,10.52,0,0,1,1.48.1l-.25.24a8,8,0,0,0-1.09-.07,4.32,4.32,0,0,0-2.4.66,4.25,4.25,0,0,0,3,1.25h.11l-.4.39A13.2,13.2,0,0,1,4,6.55a15.54,15.54,0,0,0-3-1.7V4.56l.74.32L2,4.68,4.44,5.79l-.15.13L3.05,5.38l-.13.09.65.36a2.82,2.82,0,0,0,1.34.44A2.4,2.4,0,0,0,7,4.63,8.38,8.38,0,0,1,8.2,4.57a16.22,16.22,0,0,1,3,.28l-.26.25a15.32,15.32,0,0,0-2.48-.25H8.3"></path>
  </g>
</svg>
