<svg id="Capa_1" data-name="Capa 1" xmlns="http://www.w3.org/2000/svg" viewBox="0 0 75.8 17.33"><defs><style>.cls-1{fill:#fff;}</style></defs><path class="cls-1" d="M4.52,1.13V1c0-.13,0-.16.16-.16s.14,0,.14.16V5.89a.24.24,0,0,0,.1.22l1.9,1.63c.07.07.11,0,.15,0L7.51,7c.06-.08.06-.13,0-.19A3.59,3.59,0,0,1,6.19,5.39l-.06-.12s0-.07,0-.07H8.66a.23.23,0,0,0,.2-.1c.22-.32.45-.64.68-.95a.17.17,0,0,0,0-.22c-.14-.19-.27-.4-.43-.63h.47c.07,0,.11,0,.11-.1V1.33a.43.43,0,0,0,0-.05,9.57,9.57,0,0,0,0-1.07c0-.2.06-.24.25-.19A.05.05,0,0,1,10,.08V.19c0,1,0,2,0,3,0,.14,0,.18.18.17a2.57,2.57,0,0,1,.4,0l-.27.38c-.23.31-.23.31,0,.64s.3.48.43.73A.28.28,0,0,0,11,5.2H13.5c.15,0,.15,0,.08.14A3.69,3.69,0,0,1,12.1,6.89c-.22.13-.22.13-.1.34.32.54.65,1.08,1,1.62a.22.22,0,0,0,.2.11.17.17,0,0,0,.17-.12c0-.1.1-.13.21-.13h1.05s.13,0,.12,0,0,.18-.12.18L14,9,13.4,9a.19.19,0,0,0-.16.11c-.16.32-.34.63-.5.95a.15.15,0,0,1-.16.1H9.46c-.09,0-.11,0-.09-.11a3.2,3.2,0,0,0,.09-1c0-.1,0-.15.13-.14s.1,0,.1-.11c0-.43,0-.85,0-1.28,0-.07,0-.1-.1-.11A4.17,4.17,0,0,1,7.93,7c-.07,0-.1,0-.14,0-.2.28-.39.56-.6.83-.06.08,0,.12,0,.17l.8.69s.05,0,.05.08A5.68,5.68,0,0,1,7.35,9a7.48,7.48,0,0,1-.82,0,.13.13,0,0,0-.15.07L5.1,10.83c0,.08,0,.12,0,.18a2.89,2.89,0,0,0,2,.54,3.07,3.07,0,0,0,1.67-.64,1.25,1.25,0,0,0,.37-.42.15.15,0,0,1,.14-.08h2.54c.08,0,.1,0,.08.11a10.89,10.89,0,0,1-.44,1.25.22.22,0,0,1-.24.15H2.5c-.1,0-.15,0-.17-.12a2.49,2.49,0,0,1-.09-.46,1.13,1.13,0,0,0-.5-.87s0,0,0-.05h.42l2.25,0c.11,0,.14,0,.14-.14V8.58a.17.17,0,0,0-.08-.17A3.56,3.56,0,0,1,3,6.92L1.37,9s.1,0,.14,0H3.79c.12,0,.15,0,.16.14a1.72,1.72,0,0,0,.26.82l.12.21H.68a.16.16,0,0,1-.17-.1C.35,9.8.19,9.48,0,9.16c0-.07,0-.1.06-.09H.86A.21.21,0,0,0,1,9L2.83,6.7a.15.15,0,0,0,0-.17,6,6,0,0,1-.39-2.09c0-.1,0-.2,0-.3s0-.07,0-.09.06,0,.09,0l1.16,1c.21.18.21.18.38,0a1.92,1.92,0,0,1,.13-.17.91.91,0,0,0,.27-.79c0-.67,0-1.35,0-2ZM11.34,9h1.22c.09,0,.13,0,.07-.1-.33-.55-.66-1.09-1-1.64,0-.07-.08-.07-.15,0a4.1,4.1,0,0,1-1.38.29c-.1,0-.13,0-.13.13,0,.41,0,.82,0,1.22,0,.11,0,.15.15.15Zm-6.52,1.7h0L6.05,9c0-.07,0-.08,0-.08a5.62,5.62,0,0,1-1.09-.28c-.08,0-.1,0-.1.07ZM9.7,4.48h0l-.52.73h.48c.06,0,.08,0,.08-.08Zm.75.72L10,4.49a4.64,4.64,0,0,0,0,.64s0,.07.06.07ZM4.51,5l-.29.38s0,.06,0,.09l.3.26Z"/><path class="cls-1" d="M6.85,12.14h4.28c.13,0,.14,0,.07.14a4.6,4.6,0,0,1-2.06,1.94,5,5,0,0,1-2.4.52,4.88,4.88,0,0,1-4-2,4.43,4.43,0,0,1-.29-.46c-.06-.11,0-.12.08-.12Z"/><path class="cls-1" d="M5.29,16.27a7,7,0,0,0,2.11-.58,41.23,41.23,0,0,0,4.48-2.19A6.14,6.14,0,0,1,15,12.72a3.64,3.64,0,0,1,2.58,1,1.74,1.74,0,0,1,.49,1.11,4,4,0,0,1-.17,1.52,4.13,4.13,0,0,0-.22-.42A2.94,2.94,0,0,0,16.1,14.7a6.13,6.13,0,0,0-2.4-.33,9,9,0,0,0-2.56.64c-1,.37-2,.81-3.07,1.16a4.68,4.68,0,0,1-1.47.29A4.88,4.88,0,0,1,5.29,16.27Z"/><path class="cls-1" d="M6.88,16.63a14.94,14.94,0,0,0,3.78-.93c.54-.19,1.06-.44,1.61-.6a5.15,5.15,0,0,1,3.38.09,2.83,2.83,0,0,1,.88.53,1.2,1.2,0,0,1,.4,1.29.6.6,0,0,1-.1.32l-.21-.21a3.85,3.85,0,0,0-1.42-.83,6.93,6.93,0,0,0-2.11-.41A4.32,4.32,0,0,0,12,16c-.89.17-1.75.43-2.63.63a5.55,5.55,0,0,1-1.28.17,5.17,5.17,0,0,1-1.17-.17Z"/><path class="cls-1" d="M9.69.21a9.57,9.57,0,0,1,0,1.07,2.18,2.18,0,0,0-1.42.52,2.15,2.15,0,0,1-1.63.38A1.28,1.28,0,0,1,6,1.87c.21,0,.39,0,.57-.06a2.52,2.52,0,0,0,1.28-.67A2.85,2.85,0,0,0,8.29.67a1.16,1.16,0,0,1,1-.46Z"/><path class="cls-1" d="M4.52,1.13v.94a1.75,1.75,0,0,0-1,.35,2,2,0,0,1-1.32.47,1.26,1.26,0,0,1-.85-.31l.4,0A2.24,2.24,0,0,0,3,1.89a1.73,1.73,0,0,0,.26-.28,1.16,1.16,0,0,1,1-.49Z"/><path class="cls-1" d="M68,6.71c0,.9,0,1.8,0,2.69a3.18,3.18,0,0,1-2.78,3.33,8.52,8.52,0,0,1-3.3,0,3.16,3.16,0,0,1-2.82-3.25c0-1.88,0-3.76,0-5.64,0-.27.1-.33.34-.32.51,0,1,0,1.52,0,.3,0,.37.08.37.37,0,1.66,0,3.31,0,5a2.87,2.87,0,0,0,.2,1.19,1.49,1.49,0,0,0,.42.57,2.64,2.64,0,0,0,2.7.31A1.84,1.84,0,0,0,65.8,9c0-1.7,0-3.39,0-5.09,0-.34.09-.42.41-.4q.74,0,1.47,0c.26,0,.34.06.34.32C68,4.81,68,5.76,68,6.71Z"/><path class="cls-1" d="M55.7,7.85l.76.23a2,2,0,0,1,1.48,1.74A2.21,2.21,0,0,1,56.84,12a4.82,4.82,0,0,1-2.46.62c-1,0-2.07,0-3.11,0-.24,0-.27-.1-.27-.3V3.85c0-.15,0-.32.21-.31a23.23,23.23,0,0,1,4.41.19,2.27,2.27,0,0,1,2,1.92,1.73,1.73,0,0,1-1.17,2C56.21,7.69,56,7.75,55.7,7.85Zm-2.49,2v1c0,.13,0,.26.19.26A4,4,0,0,0,55,11a1.11,1.11,0,0,0,.75-1.14,1.09,1.09,0,0,0-.84-1,5.49,5.49,0,0,0-1.28-.11c-.32,0-.47.06-.43.41A6.94,6.94,0,0,1,53.21,9.88Zm0-3.77c0,.27,0,.53,0,.8s0,.26.23.26A4.54,4.54,0,0,0,54.86,7a.9.9,0,0,0,.67-1,.9.9,0,0,0-.71-.92,3.49,3.49,0,0,0-.79-.1c-.82,0-.82,0-.82.8Z"/><path class="cls-1" d="M50.08,12.65H47.81c-.2,0-.25-.12-.31-.26-.21-.48-.42-1-.62-1.43a.33.33,0,0,0-.37-.25H43.1a.35.35,0,0,0-.39.28c-.16.48-.35.95-.52,1.42-.06.14-.1.25-.29.24H39.71l.61-1.43c1-2.44,2.11-4.88,3.15-7.33A.5.5,0,0,1,44,3.53c.61,0,1.23,0,1.85,0a.36.36,0,0,1,.39.23c1.26,2.91,2.54,5.82,3.81,8.74A.72.72,0,0,1,50.08,12.65ZM44.82,5.28a12.76,12.76,0,0,1-.6,1.84c-.23.57-.43,1.16-.66,1.73-.11.26-.05.34.23.33h2.1c.25,0,.36,0,.25-.32A31.93,31.93,0,0,1,44.82,5.28Z"/><path class="cls-1" d="M28.57,12.65H26.24c-.19,0-.22-.14-.28-.26-.2-.48-.42-1-.61-1.43a.35.35,0,0,0-.38-.25H21.56a.35.35,0,0,0-.39.28c-.15.45-.33.89-.49,1.34a.39.39,0,0,1-.44.33c-.68,0-1.35,0-2.07,0,.41-1,.81-1.9,1.21-2.83.85-2,1.71-3.93,2.54-5.91a.53.53,0,0,1,.59-.38c.6,0,1.21,0,1.81,0a.38.38,0,0,1,.42.25c1.25,2.89,2.52,5.78,3.78,8.67C28.54,12.5,28.54,12.56,28.57,12.65ZM23.28,5.29c-.14.44-.22.88-.39,1.29-.3.76-.57,1.52-.88,2.27-.11.27,0,.34.24.33h2.14c.23,0,.34,0,.23-.29A33.12,33.12,0,0,1,23.28,5.29Z"/><path class="cls-1" d="M69.7,8.08c0-1.39,0-2.78,0-4.17,0-.33.09-.38.39-.38q2.65,0,5.31,0c.27,0,.41,0,.38.36s.13,1-.08,1.22-.79.07-1.2.08c-.73,0-1.46,0-2.19,0-.3,0-.39.09-.37.38a8.51,8.51,0,0,1,0,1.13c0,.26.08.34.34.34,1,0,2.07,0,3.11,0,.31,0,.44.07.4.4a4.71,4.71,0,0,0,0,.92c0,.34-.1.38-.4.38-1,0-2.05,0-3.07,0-.29,0-.39.09-.38.38,0,.52,0,1,0,1.56,0,.26.07.34.33.33,1,0,2.07,0,3.11,0,.31,0,.43.07.4.39a6.81,6.81,0,0,0,0,1c0,.21-.06.3-.28.3H70c-.27,0-.29-.12-.29-.34C69.7,10.91,69.7,9.49,69.7,8.08Z"/><path class="cls-1" d="M26.65,3.54c.75,0,1.44,0,2.13,0a.37.37,0,0,1,.43.32c.76,2.28,1.7,4.49,2.31,6.92a23.67,23.67,0,0,1,1.28-4c.34-1,.69-1.93,1-2.89.08-.21.17-.31.42-.3.58,0,1.15,0,1.73,0,.34,0,.4,0,.26.38C35.16,6.43,34.1,9,33,11.49c-.16.39-.21.92-.55,1.11s-.79.05-1.19.05c-.84,0-.85,0-1.17-.76L26.82,4C26.76,3.85,26.72,3.72,26.65,3.54Z"/><path class="cls-1" d="M39.15,8.15c0,1.37,0,2.74,0,4.12,0,.32-.09.4-.41.39a11.21,11.21,0,0,0-1.42,0c-.32,0-.4-.08-.4-.4,0-1.94,0-3.89,0-5.84,0-.84,0-1.68,0-2.52,0-.31.09-.38.38-.37a14.42,14.42,0,0,0,1.47,0c.29,0,.38.07.38.37C39.14,5.32,39.15,6.73,39.15,8.15Z"/></svg>