<svg id="Capa_1" data-name="Capa 1" xmlns="http://www.w3.org/2000/svg" viewBox="0 0 56.5 10.6"><defs><style>.cls-1{fill:#fff;}.cls-2{fill:none;stroke:#fff;stroke-miterlimit:10;stroke-width:0.75px;}</style></defs><polygon class="cls-1" points="10.22 2.75 10.22 0.41 0 0.41 0 1.58 0 2.75 0 9.92 2.88 9.92 2.88 6.7 8.81 6.7 8.81 4.5 2.88 4.5 2.88 2.75 10.22 2.75"/><polygon class="cls-1" points="56.5 2.75 56.5 0.41 46.28 0.41 46.28 1.58 46.28 2.75 46.28 7.77 46.28 9.92 46.28 10.11 56.5 10.11 56.5 7.77 49.16 7.77 49.16 6.31 55.08 6.31 55.08 4.1 49.16 4.1 49.16 2.75 56.5 2.75"/><polygon class="cls-1" points="14.77 4.5 13.34 1.27 9.21 9.92 12.18 9.92 14.77 4.5"/><polygon class="cls-1" points="13.99 0.61 18.51 10.11 21.52 10.11 16.81 0.61 13.99 0.61"/><polygon class="cls-1" points="39.67 5.98 41.1 9.21 45.23 0.56 42.26 0.56 39.67 5.98"/><polygon class="cls-1" points="40.44 9.87 35.92 0.38 32.91 0.38 37.62 9.87 40.44 9.87"/><path class="cls-2" d="M30,6.56a3.15,3.15,0,0,1-2.94,1.35C25.38,7.91,24,7.08,24,5.23s1.36-2.68,3.05-2.68A3.22,3.22,0,0,1,30,4l2.27-1.2C31.25,1.11,29.18.38,27,.38,23.89.38,21.38,2,21.38,5.3s2.51,4.92,5.61,4.92c2.32,0,4.5-.69,5.45-2.57Z"/></svg>