<svg id="Capa_1" data-name="Capa 1" xmlns="http://www.w3.org/2000/svg" viewBox="0 0 30.65 19.8"><defs><style>.cls-1{fill:#fff;}</style></defs><g id="sLKGFF.tif"><path class="cls-1" d="M27.73,9.53A2,2,0,0,1,26,10.66c-1.57,0-3.14,0-4.71,0a1.5,1.5,0,0,0-.37,0c-.08,0-.14.11-.21.17s.13.17.21.21a.93.93,0,0,0,.29,0h5a1.83,1.83,0,0,1-1.45,1.14c-1.84,0-3.69,0-5.53,0a2.35,2.35,0,0,1-2-1.53c.34-.18.68-.34,1-.53A5.73,5.73,0,0,0,21,7c.18-.55.18-.55.76-.55h8.87a1.6,1.6,0,0,1-1.49,1.1H22.79a1.06,1.06,0,0,0-.31,0,1.17,1.17,0,0,0-.24.21c.08.07.14.18.24.21a1.11,1.11,0,0,0,.37,0H29.1a1.61,1.61,0,0,1-1.17,1.1,2.68,2.68,0,0,1-.4,0H22a1,1,0,0,0-.34,0c-.09,0-.15.13-.22.19s.14.16.23.19a.93.93,0,0,0,.29,0h5.77Z"/><path class="cls-1" d="M13.5,10.67a2.33,2.33,0,0,1-2,1.54c-1.83,0-3.67,0-5.5,0a1.91,1.91,0,0,1-1.5-1.14h5c.19,0,.47,0,.47-.21s-.28-.21-.46-.21H4.67c-.81,0-1.25-.48-1.71-1.13H8.77c.19,0,.46.05.46-.21S9,9.1,8.77,9.1H3A1.59,1.59,0,0,1,1.57,8H7.85a1.82,1.82,0,0,0,.46-.06.25.25,0,0,0,.14-.19c0-.06-.09-.15-.15-.17a1.2,1.2,0,0,0-.38,0c-2.07,0-4.15,0-6.22,0A1.86,1.86,0,0,1,0,6.44l.34,0H9.27c.14,0,.25,0,.3.18a5.63,5.63,0,0,0,3,3.61C12.88,10.37,13.19,10.51,13.5,10.67Z"/><path class="cls-1" d="M26.26,19.78H24.6c-.23,0-.2-.18-.22-.31-.06-.44-.06-.44-.5-.44s-.87,0-1.31,0c-.23,0-.38.06-.43.29-.08.41-.34.51-.73.48s-.92,0-1.43,0c.2-.42.38-.8.57-1.18.78-1.59,1.57-3.19,2.34-4.79a.43.43,0,0,1,.47-.28c.47,0,.95,0,1.42,0a.35.35,0,0,1,.25.16C25.44,15.71,25.85,17.72,26.26,19.78Zm-2.14-2-.33-2.26h-.1l-.94,2.27Z"/><path class="cls-1" d="M13.94,19.78c-.56,0-1.1,0-1.64,0-.07,0-.17-.16-.19-.26C12,19,12,19,11.56,19h-1.3c-.22,0-.36.06-.41.27-.09.42-.35.52-.75.49s-.91,0-1.39,0a2.23,2.23,0,0,1,.08-.24q1.41-2.85,2.8-5.7a.46.46,0,0,1,.51-.31c.45,0,.91,0,1.36,0,.2,0,.27.07.31.26l1.14,5.71A2,2,0,0,1,13.94,19.78ZM11.5,15.51l-.1,0-1,2.29h1.22c.05,0,.14-.13.13-.19C11.71,16.89,11.6,16.2,11.5,15.51Z"/><path class="cls-1" d="M16,19.78c.14-1,.28-2,.43-3,.07-.53.15-1,.24-1.58,0-.21-.1-.22-.24-.22H15.22l-.36,0c.1-.48.17-.92.28-1.36,0-.06.18-.12.27-.12H20.3c.19,0,.29,0,.23.27a8.75,8.75,0,0,0-.2,1c0,.17-.11.22-.27.22H18.87c-.2,0-.3.07-.33.27-.2,1.39-.41,2.78-.59,4.17,0,.24-.11.33-.37.33C17.05,19.77,16.52,19.78,16,19.78Z"/><path class="cls-1" d="M7.58,13.54l-.34,1.68q-.42,2.16-.87,4.32c0,.09-.12.23-.18.23H4.36c.13-.67.26-1.3.38-1.94.27-1.32.54-2.65.79-4,0-.23.12-.34.39-.33C6.45,13.55,7,13.54,7.58,13.54Z"/><path class="cls-1" d="M10.56,4.54a4.77,4.77,0,0,1,1.28-3.06.26.26,0,0,1,.24,0c.36.22.71.46,1.08.71-.11.37-.25.75-.34,1.14s-.12.68-.17,1c0,.13,0,.22-.19.22Z"/><path class="cls-1" d="M17.58,2.11l1.17-.75a4.73,4.73,0,0,1,1.38,3.16h-2Z"/><path class="cls-1" d="M13.1,7.41l-1.16.74A4.94,4.94,0,0,1,10.56,5h1c.3,0,.61,0,.91,0a.26.26,0,0,1,.2.13C12.8,5.87,12.94,6.62,13.1,7.41Z"/><path class="cls-1" d="M20.13,5a4.82,4.82,0,0,1-1.38,3.16L17.59,7.4,18.14,5Z"/><path class="cls-1" d="M15.15,2.65V4.52l-.29,0H13.32c-.15,0-.27,0-.23-.2.14-.64.28-1.28.44-1.91,0-.05.15-.11.22-.1C14.2,2.42,14.65,2.53,15.15,2.65Z"/><path class="cls-1" d="M15.15,6.85c-.5.12-1,.23-1.42.32a.25.25,0,0,1-.21-.11c-.15-.61-.29-1.23-.43-1.85,0-.19.07-.24.25-.24.52,0,1,0,1.56,0,.13,0,.25,0,.25.19C15.14,5.73,15.15,6.3,15.15,6.85Z"/><path class="cls-1" d="M16.58,4.54h-.75c-.18,0-.25,0-.25-.23,0-.5,0-1,0-1.51a.29.29,0,0,1,.19-.21c.37-.1.75-.18,1.13-.25.08,0,.25.06.26.12.16.6.3,1.21.43,1.82,0,.21-.07.27-.26.26Z"/><path class="cls-1" d="M17.1,7.17l-1.37-.25a.27.27,0,0,1-.14-.2c0-.51,0-1,0-1.54,0-.07.13-.2.2-.2q.81,0,1.62,0a.27.27,0,0,1,.19.18A4.56,4.56,0,0,1,17.1,7.17Z"/><path class="cls-1" d="M14.65,0,13.31,1.75l-1.06-.67A4.92,4.92,0,0,1,14.65,0Z"/><path class="cls-1" d="M18.45,1.07l-1.07.68L16,0A5.06,5.06,0,0,1,18.45,1.07Z"/><path class="cls-1" d="M13.32,7.76l1.32,1.73a4.9,4.9,0,0,1-2.38-1.05Z"/><path class="cls-1" d="M17.37,7.76l1.07.66A4.91,4.91,0,0,1,16.05,9.5Z"/><path class="cls-1" d="M15.14,2.2l-1.37-.27A5.6,5.6,0,0,1,15.14.21Z"/><path class="cls-1" d="M15.13,9.28a5.14,5.14,0,0,1-1.36-1.72l1.36-.24Z"/><path class="cls-1" d="M16.93,1.93c-.42.08-.78.16-1.15.21,0,0-.18-.11-.19-.17,0-.56,0-1.12,0-1.74A5.52,5.52,0,0,1,16.93,1.93Z"/><path class="cls-1" d="M16.93,7.68l-1.25,1.6-.1,0c0-.56,0-1.13,0-1.7a.27.27,0,0,1,.21-.15c.36,0,.72.11,1.08.18Z"/></g></svg>