<svg id="Capa_1" data-name="Capa 1" xmlns="http://www.w3.org/2000/svg" viewBox="0 0 50.17 20.14"><defs><style>.cls-1{fill:#fff;}</style></defs><g id="Qr85dQ"><path class="cls-1" d="M21.72,12.07c-.64.21-1.27.43-1.91.62a.5.5,0,0,1-.35-.09c-.39-.26-.77-.53-1.14-.82a.63.63,0,0,1-.16-.38c0-.34,0-.69,0-1s-.06-.3-.3-.22a4.77,4.77,0,0,1-2,.29,1.84,1.84,0,0,1-1.43-2.9,2,2,0,0,1,2-.69,9.34,9.34,0,0,1,1.23.33,3.57,3.57,0,0,1,.34.14c0-.17,0-.3,0-.42,0-.44,0-.88,0-1.32a.41.41,0,0,0-.19-.28,6.3,6.3,0,0,0-4.8.41,3.36,3.36,0,0,0-.71,5.42,4.67,4.67,0,0,0,2.38,1,.43.43,0,0,1,.3.12c.39.5.77,1,1.18,1.58l-.94.3L10.56,15.6c-1.46.46-2.93.91-4.39,1.38-.25.08-.35,0-.44-.22-.5-1.41-1-2.82-1.55-4.22-.15-.4-.15-.41.29-.41.63,0,1.27,0,1.9,0,.25,0,.35-.08.34-.34,0-.48,0-1,0-1.45,0-.23.08-.28.3-.28a5,5,0,0,0,2.79-.62,2.15,2.15,0,0,0,1.05-2.08A2,2,0,0,0,9.56,5.6a5.88,5.88,0,0,0-2.34-.46c-1,0-2,0-3,0-.24,0-.32.09-.32.33,0,1.94,0,3.87,0,5.81,0,.1,0,.21,0,.31H3.84L0,1.17a1.41,1.41,0,0,1,.27,0L3.08,1,8.66.64C9.82.57,11,.53,12.14.46c1.78-.1,3.77-.17,5.55-.28.87,0,1.75-.07,2.62-.11Q20.67.05,21,0a.36.36,0,0,1,.43.26c.54,1.21.88,2.37,1.42,3.57.75,1.67,1.5,3.35,2.26,5a.51.51,0,0,1-.11.68c-.6.63-1.17,1.3-1.76,2a.65.65,0,0,1-.28.21c-.42.14-.85.26-1.28.39.05-.09.15-.17.15-.26,0-.63,0-1.27,0-1.9V5.51c0-.37,0-.38-.38-.38H19.41c-.19,0-.28.06-.28.28q0,3.21,0,6.42c0,.22.1.3.3.3Zm.42-9a1.52,1.52,0,0,0-1.6-1.57,1.57,1.57,0,1,0,0,3.12A1.52,1.52,0,0,0,22.14,3.06Z"/><path class="cls-1" d="M32.68,4.94c-.44.48-.9,1-1.4,1.54a43.66,43.66,0,0,0-4,4.79C26,13,24.81,14.73,23.63,16.49c-.74,1.09-1.4,2.22-2.09,3.33l-.21.32c-.24-.37-.46-.7-.69-1l-4.15-5.75c-.16-.21-.31-.42-.47-.62a.24.24,0,0,1,0-.39c.24-.23.49-.46.72-.7a.26.26,0,0,1,.37,0l3.76,2.6c.47.32.45.33.81-.12A44.82,44.82,0,0,1,29.92,6c.43-.33.9-.63,1.35-.93a.63.63,0,0,1,.28-.12C32,4.93,32.39,4.94,32.68,4.94Z"/><path class="cls-1" d="M34.19,6.72c0-.74,0-1.47,0-2.21,0-.36,0-.36.35-.35.78,0,1.56,0,2.34,0a1.81,1.81,0,0,1,1.84,1.23,3.57,3.57,0,0,1,0,2.67A1.84,1.84,0,0,1,37,9.31c-.84,0-1.68,0-2.51,0-.22,0-.27-.09-.27-.29C34.19,8.28,34.19,7.5,34.19,6.72Zm1.55,0v.95c0,.56,0,.57.58.53a1,1,0,0,0,1-1.1V6.56c0-.93-.44-1.33-1.37-1.27-.18,0-.24.09-.24.26C35.75,6,35.74,6.34,35.74,6.73Z"/><path class="cls-1" d="M44.27,5.64c-.49,0-.93,0-1.37,0a.3.3,0,0,1-.18-.17.77.77,0,0,0-1-.4c-.13.06-.29.23-.29.34a.48.48,0,0,0,.3.34c.3.11.62.16.93.26a7.14,7.14,0,0,1,.92.32,1.33,1.33,0,0,1,.84,1.16,1.53,1.53,0,0,1-.72,1.56,3.35,3.35,0,0,1-3,.15,1.72,1.72,0,0,1-1-1.54c.48,0,.92,0,1.37,0,.07,0,.18.13.21.22a.86.86,0,0,0,1.14.55.81.81,0,0,0,.43-.46c.08-.22-.11-.41-.32-.49-.37-.13-.76-.22-1.14-.35a4.17,4.17,0,0,1-.84-.36,1.35,1.35,0,0,1,.09-2.36,2.66,2.66,0,0,1,1.4-.29,4.51,4.51,0,0,1,1.31.23A1.41,1.41,0,0,1,44.27,5.64Z"/><path class="cls-1" d="M49.69,5.62c-.46,0-.89,0-1.33,0-.07,0-.17-.11-.22-.19A.79.79,0,0,0,47.27,5c-.21,0-.4.14-.41.39s.18.33.38.39c.47.13.95.25,1.42.39a1.5,1.5,0,0,1,1.23,1.55,1.7,1.7,0,0,1-1.33,1.59,4.65,4.65,0,0,1-2,0,1.79,1.79,0,0,1-1.37-1.65L46,7.61a1.31,1.31,0,0,0,.28,0c.25-.08.37,0,.46.26a.86.86,0,0,0,1.15.52.9.9,0,0,0,.4-.46c.07-.23-.12-.41-.32-.49S47.3,7.21,47,7.09a5.3,5.3,0,0,1-1-.4,1.34,1.34,0,0,1,.07-2.29,1.79,1.79,0,0,1,.72-.26,7.94,7.94,0,0,1,1.69,0A1.45,1.45,0,0,1,49.69,5.62Z"/><path class="cls-1" d="M48.38,10.76c0-.24,0-.47,0-.7s0-.26.24-.25h.72a1.24,1.24,0,0,1,.38.09A1,1,0,0,1,50.15,11a.74.74,0,0,1-.72.69,6.17,6.17,0,0,1-.86,0c-.07,0-.17-.13-.18-.2C48.37,11.26,48.38,11,48.38,10.76Zm.6,0A2.62,2.62,0,0,0,49,11c0,.09.05.25.08.25a.62.62,0,0,0,.33-.08.68.68,0,0,0,.07-.76c-.09-.11-.26-.14-.39-.2a3,3,0,0,0-.09.32A1.21,1.21,0,0,0,49,10.76Z"/><path class="cls-1" d="M38.7,11.72a1.67,1.67,0,0,1-.39,0c-.08,0-.18-.11-.18-.17,0-.51,0-1,0-1.54,0-.06.13-.18.2-.18a6.87,6.87,0,0,1,1.11,0,.51.51,0,0,1,.36.28.5.5,0,0,1-.13.61c-.16.12-.14.22-.05.37a5.89,5.89,0,0,1,.32.54c-.45.14-.55.1-.78-.28a2.59,2.59,0,0,0-.19-.31.45.45,0,0,0-.18-.1.48.48,0,0,0-.08.18C38.7,11.33,38.7,11.5,38.7,11.72Zm.32-1,.26-.32a1.56,1.56,0,0,0-.35-.2c-.18-.05-.25.07-.25.24S38.79,10.65,39,10.68Z"/><path class="cls-1" d="M36.12,10.73a5.77,5.77,0,0,1,0-.72.25.25,0,0,1,.18-.19c.39,0,.78,0,1.17,0,.16,0,.24.08.2.22a.3.3,0,0,1-.19.19c-.19,0-.39,0-.58,0s-.14.08-.21.13.13.14.21.15.36,0,.53,0,.13.1.2.16-.12.18-.19.19a2.33,2.33,0,0,1-.53,0c-.15,0-.25.06-.21.21a.29.29,0,0,0,.21.18c.19,0,.39,0,.58,0a.29.29,0,0,1,.21.16c0,.14,0,.24-.18.24-.42,0-.83,0-1.25,0-.06,0-.15-.12-.16-.2C36.1,11.26,36.12,11,36.12,10.73Z"/><path class="cls-1" d="M46.38,9.83H47.9c.05.4.05.4-.32.4a3,3,0,0,0-.42,0c-.07,0-.13.09-.2.13s.14.14.22.15a2.08,2.08,0,0,0,.5,0c.14,0,.22.07.18.2a.28.28,0,0,1-.18.17,2.77,2.77,0,0,1-.5,0c-.16,0-.21.06-.22.22s.09.18.21.18H48v.41H46.52c-.05,0-.13-.09-.13-.13C46.38,11,46.38,10.43,46.38,9.83Z"/><path class="cls-1" d="M6.66,7.6c0-.21,0-.43,0-.64s0-.21.19-.2a5.08,5.08,0,0,1,.67.07.74.74,0,0,1,.67.79.79.79,0,0,1-.67.78,1.43,1.43,0,0,1-.74,0c-.27-.11-.07-.42-.12-.64A1,1,0,0,1,6.66,7.6Z"/><path class="cls-1" d="M35.77,10.28c-.31.14-.51.24-.74,0s-.36-.07-.49.08a.91.91,0,0,0,0,.82.34.34,0,0,0,.55,0c.18-.27.34-.05.51,0,0,.13,0,.29-.09.38a1.14,1.14,0,0,1-1.49-.08,1.26,1.26,0,0,1,0-1.32,1.07,1.07,0,0,1,1.2-.26A2.56,2.56,0,0,1,35.77,10.28Z"/><path class="cls-1" d="M43.4,10.78c0-.24,0-.48,0-.73s.07-.25.25-.24h1c.15,0,.23,0,.23.2s-.07.22-.22.21a1.93,1.93,0,0,0-.48,0c-.07,0-.14.11-.2.16s.13.15.21.17.24,0,.36,0a.28.28,0,0,1,.17.18.26.26,0,0,1-.17.18C44,11,44,11,44,11.53c0,.25-.18.18-.32.19s-.27,0-.26-.19S43.4,11,43.4,10.78Z"/><path class="cls-1" d="M41.3,11.7h-.57c0-.37,0-.74,0-1.09s-.08-.36-.33-.33-.33,0-.28-.27.12-.19.19-.19c.48,0,1,0,1.42,0,.17,0,.23.1.2.22s-.12.17-.19.25h-.1c-.29,0-.36.11-.35.36S41.3,11.32,41.3,11.7Z"/><path class="cls-1" d="M45.85,10.78v.76c0,.18-.09.2-.23.17s-.35.12-.35-.17V10c0-.21.15-.17.27-.17s.31-.06.31.17v.8Z"/><path class="cls-1" d="M42.29,10.74V10c0-.33.26-.19.42-.21s.17.08.17.23c0,.48,0,1,0,1.45,0,.16,0,.26-.21.23s-.39.11-.39-.2Z"/></g></svg>